<?xml version="1.0" encoding="UTF-8"?>
<svg width="700pt" height="700pt" version="1.1" viewBox="0 0 700 700" xmlns="http://www.w3.org/2000/svg">
 <g fill-rule="evenodd">
  <path d="m334.74 97.211c37.805 121.5 13.844 97.965 136.65 135.18-122.79 37.43-98.84 13.723-136.65 135.21-37.641-121.5-13.855-97.793-136.66-135.21 122.79-37.207 99.016-13.684 136.66-135.18z"/>
  <path d="m406.61 301.23c26.258 84.824 9.5742 68.316 95.312 94.312-85.738 26.16-69.055 9.6523-95.312 94.457-26.441-84.801-9.7695-68.305-95.492-94.457 85.734-25.988 69.055-9.4922 95.492-94.312z"/>
  <path d="m435.02 70c17.73 57.43 6.3555 46.164 64.418 63.898-58.062 17.555-46.688 6.3359-64.418 63.73-17.941-57.391-6.5859-46.168-64.613-63.73 58.027-17.738 46.664-6.4688 64.613-63.898z"/>
 </g>
</svg>
