<?xml version="1.0" encoding="UTF-8"?>
<svg width="700pt" height="700pt" version="1.1" viewBox="0 0 700 700" xmlns="http://www.w3.org/2000/svg">
 <path d="m553 251.48-27.301-27.301c-7.5234-7.5234-11.898-17.852-11.898-28.523v-38.852c0-22.398-18.199-40.426-40.426-40.426h-38.676c-10.676 0-21-4.1992-28.523-11.898l-27.652-27.477c-15.75-15.75-41.477-15.75-57.227 0l-27.297 27.477c-7.5234 7.5234-17.852 11.898-28.523 11.898h-38.676c-22.398 0-40.426 18.199-40.426 40.426v38.676c0 10.676-4.1992 21-11.898 28.523l-27.477 27.477c-15.75 15.75-15.75 41.477 0 57.227l27.301 27.301c7.5234 7.5234 11.898 17.852 11.898 28.523v38.676c0 22.398 18.199 40.426 40.426 40.426h38.676c10.676 0 21 4.1992 28.523 11.898l27.301 27.301c15.75 15.75 41.477 15.75 57.227 0l27.301-27.301c7.5234-7.5234 17.852-11.898 28.523-11.898h38.676c22.398 0 40.426-18.199 40.426-40.426v-38.676c0-10.676 4.1992-21 11.898-28.523l27.301-27.301c16.273-15.93 16.273-41.477 0.52344-57.227zm-86.273-17.852-120.23 120.23c-2.625 2.625-6.125 4.0234-9.625 4.0234s-7-1.3984-9.625-4.0234l-63.699-63.699c-5.4258-5.4258-5.4258-14 0-19.426 5.4258-5.4258 14-5.4258 19.426 0l54.074 54.074 110.6-110.6c5.4258-5.4258 14-5.4258 19.426 0 5.0703 5.25 5.0703 14-0.35156 19.426z"/>
</svg>
