<?xml version="1.0" encoding="UTF-8"?>
<svg width="700pt" height="700pt" version="1.1" viewBox="0 0 700 700" xmlns="http://www.w3.org/2000/svg">
 <g>
  <path d="m571.04 186.67-211.4-152.45c-2.8008-2.0469-6.1758-3.1523-9.6445-3.1523s-6.8438 1.1055-9.6445 3.1523l-211.4 152.45c-7.5586 5.4961-12.457 13.914-13.5 23.199-1.043 9.2852 1.8633 18.582 8.0117 25.621 6.1445 7.0352 14.969 11.164 24.309 11.379h404.45c9.3398-0.21484 18.164-4.3438 24.309-11.379 6.1484-7.0391 9.0547-16.336 8.0117-25.621-1.043-9.2852-5.9414-17.703-13.5-23.199zm-423.27 26.91 202.22-145.45 202.22 145.45z"/>
  <path d="m515.98 280c-4.4141 0-8.6484 1.7539-11.77 4.875-3.1211 3.1211-4.875 7.3555-4.875 11.77v182.46c0.11328 4.3984-1.6367 8.6367-4.8203 11.668-3.1367 3.1445-7.3828 4.9297-11.824 4.9766h-49.777v-83.066c0-13.199-5.2422-25.863-14.578-35.195-9.3359-9.3359-21.996-14.582-35.199-14.582h-66.266c-13.203 0-25.863 5.2461-35.199 14.582-9.3359 9.332-14.578 21.996-14.578 35.195v83.066h-49.777c-4.4414-0.046875-8.6875-1.832-11.824-4.9766-3.1836-3.0312-4.9336-7.2695-4.8203-11.668v-182.46c0.45312-4.6719-1.0898-9.3164-4.2422-12.793-3.1562-3.4766-7.6328-5.457-12.324-5.457-4.6953 0-9.1719 1.9805-12.324 5.457-3.1562 3.4766-4.6953 8.1211-4.2422 12.793v182.46c-0.054687 13.18 5.1523 25.832 14.465 35.156 9.375 9.3516 22.07 14.609 35.312 14.625h265.38c13.242-0.015625 25.938-5.2734 35.312-14.625 9.3125-9.3242 14.52-21.977 14.465-35.156v-182.46c0.042968-4.3984-1.6758-8.6328-4.7734-11.762-3.0938-3.125-7.3125-4.8828-11.715-4.8828zm-215.75 215.75v-83.066c0.039063-4.3867 1.8125-8.5781 4.9297-11.668 3.1172-3.0859 7.3281-4.8203 11.715-4.8203h66.266c4.3867 0 8.5977 1.7344 11.715 4.8203 3.1172 3.0898 4.8906 7.2812 4.9297 11.668v83.066z"/>
 </g>
</svg>
