<?xml version="1.0" encoding="UTF-8"?>
<svg width="700pt" height="700pt" version="1.1" viewBox="0 0 700 700" xmlns="http://www.w3.org/2000/svg">
 <path d="m349.48 34.758c-3.4414 0.11719-6.7695 1.2461-9.5742 3.2461-2.8008 2-4.9531 4.7852-6.1797 8l-50.176 125.44h-161.05c-6.1641 0.13281-11.801 3.5-14.84 8.8594-3.043 5.3594-3.043 11.922 0 17.281 3.0391 5.3594 8.6758 8.7227 14.84 8.8594h147.04l-58.824 147.04h-88.215c-6.1641 0.13672-11.797 3.5-14.84 8.8594-3.043 5.3594-3.043 11.926 0 17.285 3.043 5.3594 8.6758 8.7227 14.84 8.8555h74.203l-45.016 112.52c-2.3242 5.8203-1.3711 12.438 2.5078 17.359 3.875 4.9258 10.082 7.4062 16.285 6.5117 6.1992-0.89453 11.453-5.0312 13.781-10.848l50.211-125.54h144.27l-45.016 112.52c-1.9297 4.3555-2.0078 9.3047-0.21094 13.715 1.793 4.4102 5.3047 7.9023 9.7266 9.6719s9.3711 1.6641 13.711-0.28906c4.3438-1.957 7.7031-5.5898 9.3125-10.074l50.211-125.54h160.98c6.1602-0.13281 11.797-3.4961 14.84-8.8555s3.043-11.926 0-17.285-8.6797-8.7227-14.84-8.8594h-146.97l58.824-147.04h88.148c6.1602-0.13672 11.797-3.5 14.84-8.8594 3.043-5.3594 3.043-11.922 0-17.281-3.043-5.3594-8.6797-8.7266-14.84-8.8594h-74.137l44.945-112.38c2.332-5.5117 1.6836-11.832-1.7188-16.758-3.3984-4.9258-9.082-7.7695-15.062-7.543-3.4414 0.11328-6.7695 1.2422-9.5742 3.2461-2.8008 2-4.9531 4.7812-6.1836 7.9961l-50.176 125.44h-144.24l44.945-112.38h0.003907c2.3281-5.5117 1.6797-11.832-1.7227-16.758-3.3984-4.9258-9.082-7.7695-15.062-7.543zm-42.18 171.68h144.24l-58.824 147.04-144.23 0.003906z"/>
</svg>
