<?xml version="1.0" encoding="UTF-8"?>
<svg width="700pt" height="700pt" version="1.1" viewBox="0 0 700 700" xmlns="http://www.w3.org/2000/svg">
 <path d="m214.73 27.992h270.56c9.4922 0 18.156 3.9023 24.445 10.191 6.2891 6.25 10.188 14.914 10.188 24.445v440.55c0 5.7344-1.6484 11.133-4.6367 15.715-2.9883 4.582-7.2773 8.2734-12.539 10.598-5.2578 2.3164-10.848 2.9883-16.23 2.1094s-10.477-3.3086-14.73-7.1836l-119.01-108.66c-1.2578-1.1445-2.8359-1.7266-4.3672-1.7188-1.5156 0.007813-3.082 0.60156-4.3203 1.7578l-115.64 107.82c-4.2344 3.957-9.3242 6.4492-14.723 7.375-5.3594 0.92578-11 0.26953-16.336-2.0508l-0.70703-0.33594c-4.9883-2.3203-9.043-5.875-11.891-10.219-3.043-4.5781-4.7109-10-4.7109-15.789v-439.97c0-9.4961 3.9023-18.164 10.191-24.453 6.25-6.2891 14.922-10.188 24.453-10.188zm270.56 22.41h-270.56c-3.3516 0-6.4219 1.375-8.6367 3.5898-2.2305 2.1875-3.5977 5.2656-3.5977 8.6367v439.97c0 1.3555 0.35547 2.5742 0.98437 3.5391 0.55078 0.89453 1.3945 1.6406 2.4453 2.1641l0.39844 0.16406c1.2109 0.52344 2.4727 0.67578 3.6523 0.47656 1.1445-0.19141 2.2734-0.77344 3.2539-1.6875l115.64-107.82c5.4492-5.0859 12.441-7.6719 19.453-7.7109 6.9922-0.027344 13.996 2.4727 19.512 7.5l119.01 108.66c1.0039 0.91406 2.1367 1.4805 3.2617 1.668 1.1328 0.18359 2.3945 0.011719 3.6367-0.53516 1.2305-0.54297 2.2109-1.3477 2.8164-2.2891 0.61328-0.94531 0.96094-2.168 0.96094-3.5469v-440.55c0-3.3516-1.375-6.4141-3.5898-8.6328-2.1875-2.2305-5.2578-3.5977-8.6328-3.5977z"/>
</svg>
