<?xml version="1.0" encoding="UTF-8"?>
<svg width="700pt" height="700pt" version="1.1" viewBox="0 0 700 700" xmlns="http://www.w3.org/2000/svg" xmlns:xlink="http://www.w3.org/1999/xlink">
 <defs>
  <symbol id="j" overflow="visible">
   <path d="m11.234-0.67188c-0.58594 0.30469-1.1875 0.52734-1.8125 0.67188-0.625 0.15625-1.2812 0.23438-1.9688 0.23438-2.0312 0-3.6484-0.56641-4.8438-1.7031-1.1875-1.1328-1.7812-2.6758-1.7812-4.625 0-1.957 0.59375-3.5039 1.7812-4.6406 1.1953-1.1328 2.8125-1.7031 4.8438-1.7031 0.6875 0 1.3438 0.078125 1.9688 0.23438 0.625 0.14844 1.2266 0.37109 1.8125 0.67188v2.5312c-0.58594-0.40625-1.1641-0.69531-1.7344-0.875-0.5625-0.1875-1.1562-0.28125-1.7812-0.28125-1.125 0-2.0117 0.35938-2.6562 1.0781-0.64844 0.71875-0.96875 1.7148-0.96875 2.9844 0 1.2617 0.32031 2.25 0.96875 2.9688 0.64453 0.71875 1.5312 1.0781 2.6562 1.0781 0.625 0 1.2188-0.09375 1.7812-0.28125 0.57031-0.1875 1.1484-0.47656 1.7344-0.875z"/>
  </symbol>
  <symbol id="c" overflow="visible">
   <path d="m8.2188-6.6719c-0.26172-0.125-0.51562-0.21094-0.76562-0.26562-0.25-0.0625-0.50781-0.09375-0.76562-0.09375-0.75 0-1.3281 0.24609-1.7344 0.73438-0.40625 0.48047-0.60938 1.1719-0.60938 2.0781v4.2188h-2.9375v-9.1719h2.9375v1.5156c0.375-0.60156 0.80469-1.0391 1.2969-1.3125 0.48828-0.28125 1.0703-0.42188 1.75-0.42188 0.10156 0 0.21094 0.007813 0.32812 0.015625 0.11328 0.011719 0.27344 0.027344 0.48438 0.046875z"/>
  </symbol>
  <symbol id="a" overflow="visible">
   <path d="m10.562-4.6094v0.82812h-6.8594c0.070313 0.6875 0.32031 1.2031 0.75 1.5469 0.42578 0.34375 1.0195 0.51562 1.7812 0.51562 0.61328 0 1.2422-0.085938 1.8906-0.26562 0.65625-0.1875 1.3203-0.46094 2-0.82812v2.25c-0.6875 0.27344-1.3828 0.46875-2.0781 0.59375-0.69922 0.13281-1.3906 0.20312-2.0781 0.20312-1.6562 0-2.9492-0.42188-3.875-1.2656-0.91797-0.84375-1.375-2.0234-1.375-3.5469 0-1.4883 0.45312-2.6602 1.3594-3.5156 0.90625-0.86328 2.1445-1.2969 3.7188-1.2969 1.4453 0 2.6016 0.4375 3.4688 1.3125 0.86328 0.86719 1.2969 2.0234 1.2969 3.4688zm-3.0156-0.96875c0-0.5625-0.16406-1.0078-0.48438-1.3438-0.32422-0.34375-0.75-0.51562-1.2812-0.51562-0.5625 0-1.0234 0.16406-1.375 0.48438-0.35547 0.3125-0.57812 0.77344-0.67188 1.375z"/>
  </symbol>
  <symbol id="h" overflow="visible">
   <path d="m5.5156-4.125c-0.61719 0-1.0781 0.10547-1.3906 0.3125-0.30469 0.21094-0.45312 0.51562-0.45312 0.92188 0 0.36719 0.125 0.65234 0.375 0.85938 0.25 0.21094 0.59375 0.3125 1.0312 0.3125 0.55078 0 1.0156-0.19141 1.3906-0.57812 0.38281-0.39453 0.57812-0.89453 0.57812-1.5v-0.32812zm4.4844-1.1094v5.2344h-2.9531v-1.3594c-0.39844 0.55469-0.83984 0.96094-1.3281 1.2188-0.49219 0.25-1.0898 0.375-1.7969 0.375-0.94922 0-1.7188-0.27344-2.3125-0.82812-0.59375-0.55078-0.89062-1.2695-0.89062-2.1562 0-1.0703 0.36719-1.8594 1.1094-2.3594 0.73828-0.50781 1.8984-0.76562 3.4844-0.76562h1.7344v-0.21875c0-0.46875-0.1875-0.80469-0.5625-1.0156-0.36719-0.21875-0.93359-0.32812-1.7031-0.32812-0.625 0-1.2109 0.0625-1.75 0.1875-0.54297 0.125-1.0469 0.3125-1.5156 0.5625v-2.2344c0.63281-0.15625 1.2656-0.26953 1.8906-0.34375 0.63281-0.082031 1.2695-0.125 1.9062-0.125 1.6562 0 2.8477 0.32812 3.5781 0.98438 0.73828 0.64844 1.1094 1.7031 1.1094 3.1719z"/>
  </symbol>
  <symbol id="b" overflow="visible">
   <path d="m4.6094-11.766v2.5938h3.0156v2.0938h-3.0156v3.8906c0 0.42969 0.082031 0.71875 0.25 0.875 0.16406 0.14844 0.50391 0.21875 1.0156 0.21875h1.5v2.0938h-2.5156c-1.1562 0-1.9805-0.23828-2.4688-0.71875-0.48047-0.48828-0.71875-1.3125-0.71875-2.4688v-3.8906h-1.4531v-2.0938h1.4531v-2.5938z"/>
  </symbol>
  <symbol id="l" overflow="visible">
   <path d="m7.6406-7.8281v-4.9062h2.9531v12.734h-2.9531v-1.3281c-0.39844 0.54297-0.83984 0.9375-1.3281 1.1875-0.49219 0.25-1.0547 0.375-1.6875 0.375-1.125 0-2.0547-0.44531-2.7812-1.3438-0.73047-0.89453-1.0938-2.0508-1.0938-3.4688 0-1.4141 0.36328-2.5703 1.0938-3.4688 0.72656-0.89453 1.6562-1.3438 2.7812-1.3438 0.63281 0 1.1953 0.13281 1.6875 0.39062 0.48828 0.25 0.92969 0.64062 1.3281 1.1719zm-1.9219 5.9375c0.625 0 1.0977-0.22656 1.4219-0.6875 0.33203-0.45703 0.5-1.125 0.5-2s-0.16797-1.5391-0.5-2c-0.32422-0.45703-0.79688-0.6875-1.4219-0.6875s-1.1055 0.23047-1.4375 0.6875c-0.32422 0.46094-0.48438 1.125-0.48438 2s0.16016 1.543 0.48438 2c0.33203 0.46094 0.8125 0.6875 1.4375 0.6875z"/>
  </symbol>
  <symbol id="k" overflow="visible">
   <path d="m6.2812-1.8906c0.63281 0 1.1133-0.22656 1.4375-0.6875 0.33203-0.45703 0.5-1.125 0.5-2s-0.16797-1.5391-0.5-2c-0.32422-0.45703-0.80469-0.6875-1.4375-0.6875-0.625 0-1.1055 0.23438-1.4375 0.70312-0.33594 0.46094-0.5 1.1211-0.5 1.9844 0 0.86719 0.16406 1.5312 0.5 2 0.33203 0.46094 0.8125 0.6875 1.4375 0.6875zm-1.9375-5.9375c0.39453-0.53125 0.83594-0.92188 1.3281-1.1719 0.5-0.25781 1.0664-0.39062 1.7031-0.39062 1.1328 0 2.0625 0.44922 2.7812 1.3438 0.72656 0.89844 1.0938 2.0547 1.0938 3.4688 0 1.418-0.36719 2.5742-1.0938 3.4688-0.71875 0.89844-1.6484 1.3438-2.7812 1.3438-0.63672 0-1.2031-0.125-1.7031-0.375-0.49219-0.25781-0.93359-0.65625-1.3281-1.1875v1.3281h-2.9375v-12.734h2.9375z"/>
  </symbol>
  <symbol id="g" overflow="visible">
   <path d="m0.20312-9.1719h2.9375l2.4531 6.2188 2.0938-6.2188h2.9375l-3.8594 10.047c-0.38672 1.0195-0.83984 1.7344-1.3594 2.1406-0.51172 0.40625-1.1875 0.60938-2.0312 0.60938h-1.7031v-1.9375h0.92188c0.5 0 0.85938-0.078125 1.0781-0.23438 0.22656-0.15625 0.40625-0.4375 0.53125-0.84375l0.09375-0.25z"/>
  </symbol>
  <symbol id="f" overflow="visible">
   <path d="m10.625-5.5781v5.5781h-2.9531v-4.25c0-0.80078-0.015625-1.3516-0.046875-1.6562-0.03125-0.30078-0.09375-0.52344-0.1875-0.67188-0.11719-0.1875-0.27344-0.33203-0.46875-0.4375-0.1875-0.10156-0.41406-0.15625-0.67188-0.15625-0.60547 0-1.0859 0.23438-1.4375 0.70312-0.34375 0.46875-0.51562 1.1211-0.51562 1.9531v4.5156h-2.9375v-12.734h2.9375v4.9062c0.4375-0.53125 0.89844-0.92188 1.3906-1.1719 0.5-0.25781 1.0508-0.39062 1.6562-0.39062 1.0625 0 1.8633 0.32812 2.4062 0.98438 0.55078 0.64844 0.82812 1.5898 0.82812 2.8281z"/>
  </symbol>
  <symbol id="w" overflow="visible">
   <path d="m8.5781-8.875v2.2188c-0.63672-0.25781-1.2461-0.45312-1.8281-0.57812-0.58594-0.13281-1.1367-0.20312-1.6562-0.20312-0.55469 0-0.96484 0.070312-1.2344 0.20312-0.27344 0.13672-0.40625 0.35156-0.40625 0.64062 0 0.24219 0.097656 0.42188 0.29688 0.54688 0.20703 0.125 0.57812 0.21875 1.1094 0.28125l0.51562 0.0625c1.5 0.19922 2.5078 0.51562 3.0312 0.95312 0.51953 0.4375 0.78125 1.1211 0.78125 2.0469 0 0.98047-0.35938 1.7148-1.0781 2.2031-0.71875 0.49219-1.7969 0.73438-3.2344 0.73438-0.60547 0-1.2305-0.046875-1.875-0.14062-0.64844-0.09375-1.3125-0.23438-2-0.42188v-2.2344c0.59375 0.28125 1.1914 0.49609 1.7969 0.64062 0.61328 0.13672 1.2383 0.20312 1.875 0.20312 0.57031 0 1.0039-0.078125 1.2969-0.23438 0.28906-0.15625 0.4375-0.39062 0.4375-0.70312 0-0.25781-0.10547-0.45312-0.3125-0.57812-0.19922-0.13281-0.59375-0.23438-1.1875-0.29688l-0.51562-0.078125c-1.3047-0.15625-2.2148-0.45312-2.7344-0.89062-0.52344-0.44531-0.78125-1.125-0.78125-2.0312 0-0.96875 0.32812-1.6875 0.98438-2.1562 0.66406-0.46875 1.6875-0.70312 3.0625-0.70312 0.53906 0 1.1094 0.042969 1.7031 0.125 0.59375 0.085937 1.2422 0.21484 1.9531 0.39062z"/>
  </symbol>
  <symbol id="i" overflow="visible">
   <path d="m1.4062-9.1719h2.9375v9.1719h-2.9375zm0-3.5625h2.9375v2.3906h-2.9375z"/>
  </symbol>
  <symbol id="d" overflow="visible">
   <path d="m10.625-5.5781v5.5781h-2.9531v-4.2656c0-0.78906-0.015625-1.3359-0.046875-1.6406-0.03125-0.30078-0.09375-0.52344-0.1875-0.67188-0.11719-0.1875-0.27344-0.33203-0.46875-0.4375-0.1875-0.10156-0.41406-0.15625-0.67188-0.15625-0.60547 0-1.0859 0.23438-1.4375 0.70312-0.34375 0.46875-0.51562 1.1211-0.51562 1.9531v4.5156h-2.9375v-9.1719h2.9375v1.3438c0.4375-0.53125 0.89844-0.92188 1.3906-1.1719 0.5-0.25781 1.0508-0.39062 1.6562-0.39062 1.0625 0 1.8633 0.32812 2.4062 0.98438 0.55078 0.64844 0.82812 1.5898 0.82812 2.8281z"/>
  </symbol>
  <symbol id="v" overflow="visible">
   <path d="m8.9531-2.2344h-4.9219l-0.78125 2.2344h-3.1719l4.5312-12.219h3.75l4.5312 12.219h-3.1719zm-4.1406-2.2656h3.3438l-1.6719-4.8594z"/>
  </symbol>
  <symbol id="u" overflow="visible">
   <path d="m7.6406-1.5625c-0.39844 0.54297-0.83984 0.9375-1.3281 1.1875-0.49219 0.25-1.0547 0.375-1.6875 0.375-1.1172 0-2.043-0.4375-2.7812-1.3125-0.73047-0.88281-1.0938-2.0078-1.0938-3.375 0-1.375 0.36328-2.5 1.0938-3.375 0.73828-0.875 1.6641-1.3125 2.7812-1.3125 0.63281 0 1.1953 0.125 1.6875 0.375 0.48828 0.25 0.92969 0.64844 1.3281 1.1875v-1.3594h2.9531v8.25c0 1.4688-0.46875 2.5938-1.4062 3.375-0.92969 0.78125-2.2734 1.1719-4.0312 1.1719-0.57422 0-1.1328-0.046875-1.6719-0.14062-0.53125-0.085937-1.0703-0.21484-1.6094-0.39062v-2.2969c0.50781 0.30078 1.0078 0.51953 1.5 0.65625 0.5 0.14453 0.99219 0.21875 1.4844 0.21875 0.95703 0 1.6602-0.21094 2.1094-0.625 0.44531-0.41797 0.67188-1.0703 0.67188-1.9688zm-1.9219-5.7031c-0.60547 0-1.0781 0.22656-1.4219 0.67188-0.33594 0.44922-0.5 1.0859-0.5 1.9062 0 0.83594 0.16016 1.4688 0.48438 1.9062 0.32031 0.4375 0.80078 0.65625 1.4375 0.65625 0.60156 0 1.0703-0.22266 1.4062-0.67188 0.34375-0.44531 0.51562-1.0781 0.51562-1.8906 0-0.82031-0.17188-1.457-0.51562-1.9062-0.33594-0.44531-0.80469-0.67188-1.4062-0.67188z"/>
  </symbol>
  <symbol id="t" overflow="visible">
   <path d="m1.4062-12.734h2.9375v12.734h-2.9375z"/>
  </symbol>
  <symbol id="s" overflow="visible">
   <path d="m7.4375-12.734v1.9219h-1.6094c-0.41797 0-0.71094 0.078125-0.875 0.23438-0.16797 0.14844-0.25 0.40234-0.25 0.76562v0.64062h2.5156v2.0938h-2.5156v7.0781h-2.9219v-7.0781h-1.4688v-2.0938h1.4688v-0.64062c0-1 0.27344-1.7344 0.82812-2.2031 0.5625-0.47656 1.4258-0.71875 2.5938-0.71875z"/>
  </symbol>
  <symbol id="e" overflow="visible">
   <path d="m5.7656-7.2969c-0.64844 0-1.1406 0.23438-1.4844 0.70312-0.33594 0.46875-0.5 1.1406-0.5 2.0156s0.16406 1.5469 0.5 2.0156c0.34375 0.46875 0.83594 0.70312 1.4844 0.70312 0.64453 0 1.1328-0.23438 1.4688-0.70312 0.34375-0.46875 0.51562-1.1406 0.51562-2.0156s-0.17188-1.5469-0.51562-2.0156c-0.33594-0.46875-0.82422-0.70312-1.4688-0.70312zm0-2.0938c1.582 0 2.8164 0.42969 3.7031 1.2812 0.88281 0.85547 1.3281 2.0312 1.3281 3.5312 0 1.5117-0.44531 2.6953-1.3281 3.5469-0.88672 0.84375-2.1211 1.2656-3.7031 1.2656-1.5859 0-2.8242-0.42188-3.7188-1.2656-0.88672-0.85156-1.3281-2.0352-1.3281-3.5469 0-1.5 0.44141-2.6758 1.3281-3.5312 0.89453-0.85156 2.1328-1.2812 3.7188-1.2812z"/>
  </symbol>
  <symbol id="r" overflow="visible">
   <path d="m9.9062-7.6406c0.375-0.57031 0.81641-1.0039 1.3281-1.2969 0.50781-0.30078 1.0664-0.45312 1.6719-0.45312 1.0508 0 1.8516 0.32812 2.4062 0.98438 0.55078 0.64844 0.82812 1.5898 0.82812 2.8281v5.5781h-2.9375v-4.7812-0.21875c0.007813-0.070312 0.015625-0.17969 0.015625-0.32812 0-0.64453-0.10156-1.1133-0.29688-1.4062-0.1875-0.28906-0.49609-0.4375-0.92188-0.4375-0.55469 0-0.98438 0.23047-1.2969 0.6875-0.30469 0.46094-0.46094 1.1211-0.46875 1.9844v4.5h-2.9375v-4.7812c0-1.0078-0.089844-1.6602-0.26562-1.9531-0.17969-0.28906-0.49219-0.4375-0.9375-0.4375-0.5625 0-0.99609 0.23047-1.2969 0.6875-0.30469 0.46094-0.45312 1.1172-0.45312 1.9688v4.5156h-2.9531v-9.1719h2.9531v1.3438c0.35156-0.51953 0.76562-0.91016 1.2344-1.1719 0.46875-0.25781 0.98438-0.39062 1.5469-0.39062 0.63281 0 1.1914 0.15625 1.6719 0.46875 0.48828 0.30469 0.85938 0.73047 1.1094 1.2812z"/>
  </symbol>
  <symbol id="q" overflow="visible">
   <path d="m1.5312-12.219h3.5312l4.4375 8.375v-8.375h3v12.219h-3.5312l-4.4375-8.3906v8.3906h-3z"/>
  </symbol>
  <symbol id="p" overflow="visible">
   <path d="m1.3125-3.5625v-5.6094h2.9375v0.92188c0 0.5-0.007812 1.125-0.015625 1.875v1.5c0 0.73047 0.019531 1.2617 0.0625 1.5938 0.039063 0.32422 0.10938 0.55859 0.20312 0.70312 0.11328 0.1875 0.26562 0.33594 0.45312 0.4375 0.19531 0.10547 0.42188 0.15625 0.67188 0.15625 0.61328 0 1.0938-0.23438 1.4375-0.70312 0.35156-0.46875 0.53125-1.1172 0.53125-1.9531v-4.5312h2.9375v9.1719h-2.9375v-1.3281c-0.4375 0.53125-0.90625 0.92969-1.4062 1.1875-0.49219 0.25-1.0312 0.375-1.625 0.375-1.0625 0-1.8711-0.32031-2.4219-0.96875-0.55469-0.65625-0.82812-1.5977-0.82812-2.8281z"/>
  </symbol>
  <symbol id="o" overflow="visible">
   <path d="m1.5312-12.219h5.2344c1.5625 0 2.7539 0.34375 3.5781 1.0312 0.83203 0.6875 1.25 1.6719 1.25 2.9531s-0.41797 2.2734-1.25 2.9688c-0.82422 0.6875-2.0156 1.0312-3.5781 1.0312h-2.0781v4.2344h-3.1562zm3.1562 2.2812v3.4062h1.75c0.60156 0 1.0703-0.14453 1.4062-0.4375 0.33203-0.30078 0.5-0.72266 0.5-1.2656 0-0.53906-0.16797-0.95703-0.5-1.25-0.33594-0.30078-0.80469-0.45312-1.4062-0.45312z"/>
  </symbol>
  <symbol id="n" overflow="visible">
   <path d="m1.4062-9.1719h2.9375v9.0156c0 1.2188-0.29688 2.1484-0.89062 2.7969-0.58594 0.65625-1.4375 0.98438-2.5625 0.98438h-1.4531v-1.9375h0.51562c0.55078 0 0.92969-0.125 1.1406-0.375 0.20703-0.25 0.3125-0.74219 0.3125-1.4688zm0-3.5625h2.9375v2.3906h-2.9375z"/>
  </symbol>
  <symbol id="m" overflow="visible">
   <path d="m8.8125-8.875v2.3906c-0.39844-0.28125-0.79688-0.48438-1.2031-0.60938-0.39844-0.13281-0.80859-0.20312-1.2344-0.20312-0.82422 0-1.4648 0.24219-1.9219 0.71875-0.44922 0.48047-0.67188 1.1484-0.67188 2 0 0.85547 0.22266 1.5234 0.67188 2 0.45703 0.48047 1.0977 0.71875 1.9219 0.71875 0.45703 0 0.89062-0.066406 1.2969-0.20312 0.41406-0.13281 0.79688-0.33594 1.1406-0.60938v2.4062c-0.46094 0.16797-0.92188 0.28906-1.3906 0.375-0.46875 0.082031-0.94531 0.125-1.4219 0.125-1.6562 0-2.9531-0.42188-3.8906-1.2656-0.92969-0.85156-1.3906-2.0352-1.3906-3.5469 0-1.5078 0.46094-2.6875 1.3906-3.5312 0.9375-0.85156 2.2344-1.2812 3.8906-1.2812 0.47656 0 0.95312 0.042969 1.4219 0.125 0.46875 0.085937 0.92969 0.21484 1.3906 0.39062z"/>
  </symbol>
 </defs>
 <g>
  <path d="m224.25 0h254.85c107.3 0 194.49 87.188 194.49 197.84 0 147.54-114.01 285.03-231.38 362.16 13.414-33.531 83.832-167.66 36.887-167.66h-254.85c-110.66 0-197.84-87.188-197.84-194.49 0-110.66 87.188-197.84 197.84-197.84zm271.62 492.93c87.188-77.125 157.61-181.08 157.61-295.09 0-97.246-77.125-177.72-174.37-177.72h-254.85c-97.246 0-177.72 80.48-177.72 177.72 0 97.246 80.48 174.37 177.72 174.37h254.85c10.059 0 16.766 3.3516 23.473 10.059 23.473 20.121 10.059 67.066-6.707 110.66z" fill-rule="evenodd"/>
  <use x="26.40625" y="610.300781" xlink:href="#j"/>
  <use x="38.710938" y="610.300781" xlink:href="#c"/>
  <use x="46.980469" y="610.300781" xlink:href="#a"/>
  <use x="58.351562" y="610.300781" xlink:href="#h"/>
  <use x="69.664062" y="610.300781" xlink:href="#b"/>
  <use x="77.679688" y="610.300781" xlink:href="#a"/>
  <use x="89.050781" y="610.300781" xlink:href="#l"/>
  <use x="106.890625" y="610.300781" xlink:href="#k"/>
  <use x="118.894531" y="610.300781" xlink:href="#g"/>
  <use x="135.660156" y="610.300781" xlink:href="#j"/>
  <use x="147.964844" y="610.300781" xlink:href="#f"/>
  <use x="159.898438" y="610.300781" xlink:href="#c"/>
  <use x="168.167969" y="610.300781" xlink:href="#g"/>
  <use x="179.097656" y="610.300781" xlink:href="#w"/>
  <use x="189.078125" y="610.300781" xlink:href="#b"/>
  <use x="197.09375" y="610.300781" xlink:href="#i"/>
  <use x="202.839844" y="610.300781" xlink:href="#d"/>
  <use x="214.777344" y="610.300781" xlink:href="#h"/>
  <use x="231.925781" y="610.300781" xlink:href="#v"/>
  <use x="244.902344" y="610.300781" xlink:href="#d"/>
  <use x="256.839844" y="610.300781" xlink:href="#u"/>
  <use x="268.839844" y="610.300781" xlink:href="#a"/>
  <use x="280.210938" y="610.300781" xlink:href="#t"/>
  <use x="285.960938" y="610.300781" xlink:href="#i"/>
  <use x="291.707031" y="610.300781" xlink:href="#d"/>
  <use x="303.644531" y="610.300781" xlink:href="#a"/>
  <use x="26.40625" y="627.066406" xlink:href="#s"/>
  <use x="33.703125" y="627.066406" xlink:href="#c"/>
  <use x="41.96875" y="627.066406" xlink:href="#e"/>
  <use x="53.488281" y="627.066406" xlink:href="#r"/>
  <use x="76.796875" y="627.066406" xlink:href="#b"/>
  <use x="84.8125" y="627.066406" xlink:href="#f"/>
  <use x="96.746094" y="627.066406" xlink:href="#a"/>
  <use x="113.957031" y="627.066406" xlink:href="#q"/>
  <use x="127.988281" y="627.066406" xlink:href="#e"/>
  <use x="139.507812" y="627.066406" xlink:href="#p"/>
  <use x="151.445312" y="627.066406" xlink:href="#d"/>
  <use x="169.21875" y="627.066406" xlink:href="#o"/>
  <use x="181.503906" y="627.066406" xlink:href="#c"/>
  <use x="189.773438" y="627.066406" xlink:href="#e"/>
  <use x="201.292969" y="627.066406" xlink:href="#n"/>
  <use x="207.039062" y="627.066406" xlink:href="#a"/>
  <use x="218.410156" y="627.066406" xlink:href="#m"/>
  <use x="228.351562" y="627.066406" xlink:href="#b"/>
 </g>
</svg>
